<?xml version="1.0" encoding="utf-8"?>
<!-- Generator: Adobe Illustrator 19.0.0, SVG Export Plug-In . SVG Version: 6.00 Build 0)  -->
<svg version="1.1" id="Layer_1" xmlns="http://www.w3.org/2000/svg" xmlns:xlink="http://www.w3.org/1999/xlink" x="0px" y="0px"
	 viewBox="4 -4 30 30" style="enable-background:new 4 -4 30 30;" width="30px" height="30px" xml:space="preserve">
<style type="text/css">
	.st0{fill:#FFD600;}
</style>
<g id="XMLID_2365_">
	<g id="XMLID_2462_">
		<circle id="XMLID_41_" cx="19" cy="11" r="15"/>
	</g>
	<g id="XMLID_5591_">
		<g id="XMLID_5593_">
			<path id="XMLID_5642_" class="st0" d="M22.4,18.6c0,1.7-1.4,3.1-3.1,3.1s-3.1-1.4-3.1-3.1c1.3,0.4,1.4,0.4,3.1,0.4
				S21.1,18.9,22.4,18.6z"/>
			<g id="XMLID_5618_">
				<path id="XMLID_30_" class="st0" d="M17.5,2.2l-1.8-0.8c0.6-1.4,2-2.3,3.6-2.3c1.6,0,3,0.8,3.6,2.3l-1.8,0.8
					c-0.4-0.9-1.2-1.1-1.8-1.1C18.7,1.1,18,1.3,17.5,2.2z"/>
			</g>
			<path id="XMLID_5610_" class="st0" d="M24.7,8.4c0-2.9-2.4-5.3-5.3-5.3s-5.3,2.4-5.3,5.3c0,3.1-3.1,7-3.1,7s3,2.2,8.4,2.2
				c5.3,0,8.1-2.2,8.1-2.2S24.7,11.2,24.7,8.4z"/>
		</g>
	</g>
</g>
</svg>
