<?xml version="1.0" encoding="utf-8"?>
<!-- Generator: Adobe Illustrator 19.0.0, SVG Export Plug-In . SVG Version: 6.00 Build 0)  -->
<svg version="1.1" id="Layer_1" xmlns="http://www.w3.org/2000/svg" xmlns:xlink="http://www.w3.org/1999/xlink" x="0px" y="0px"
	 viewBox="0 0 150 34" style="enable-background:new 0 0 150 34; max-height:100%" height="34px" width="150px" xml:space="preserve">
<style type="text/css">
	.st0z{fill:#FFD600;}
</style>
<g id="XMLID_5787_">
	<path id="XMLID_6652_" class="st0z" d="M3.7,30.4h142.7V3.6H3.7V30.4z M0,0h150v34H0V0z"/>
	<g id="XMLID_6643_">
		<g id="XMLID_82_">
			<path id="XMLID_83_" class="st0z" d="M15.5,16.9v-3.5h4.4c0.6,0,1.1,0.5,1.1,1.1v1.4c0,0.6-0.5,1.1-1.1,1.1H15.5z M21.9,9.8H11
				v14.5h4.6l0-3.6l6.3,0c1.7,0,3.1-1.4,3.1-3.1v-4.6C25,11.2,23.6,9.8,21.9,9.8"/>
		</g>
	</g>
	<path id="XMLID_5826_" class="st0z" d="M96.4,24.2l0.9-2.6h6.1l0.9,2.6h4.6l-5.3-14.5h-6.6l-5.4,14.5H96.4z M98.5,18.5l1.7-4.7h0.3
		l1.7,4.7H98.5z"/>
	<g id="XMLID_5819_">
		<g id="XMLID_56_">
			<path id="XMLID_61_" class="st0z" d="M60.1,24.2h4.7V18c0-1.4,0.4-2.5,2.5-2.5c1.5,0,1.9,0.6,2,1.7v7H74v-7.8
				c0-2.4-1.7-3.6-4.7-3.6c-1.9,0-3.4,0.3-4.1,2.3h-0.3v-2.1h-4.7V24.2z"/>
		</g>
	</g>
	<polygon id="XMLID_5816_" class="st0z" points="43.1,9.8 43.1,24.2 47.7,24.2 47.7,21.1 49.4,19.4 53.6,24.2 59.3,24.2 52.4,16.3 
		59,9.8 53.3,9.8 47.7,15.5 47.7,9.8 	"/>
	<polygon id="XMLID_5813_" class="st0z" points="115.4,20.2 111.6,9.8 106.9,9.8 112.2,24.2 118.8,24.2 124.3,9.8 119.6,9.8 
		115.7,20.2 	"/>
	<polygon id="XMLID_5810_" class="st0z" points="60.1,11.2 62.9,8.4 67.8,8.4 64.9,11.2 	"/>
	<polygon id="XMLID_5807_" class="st0z" points="138.9,13.1 138.9,9.8 125,9.8 125,24.2 139.1,24.2 139.1,20.4 129.5,20.4 
		129.5,18.4 138.4,18.4 138.4,15.1 129.5,15.1 129.5,13.1 	"/>
	<path id="XMLID_5796_" class="st0z" d="M29.2,24.2l0.9-2.6h6.1l0.9,2.6h4.6L36.6,9.8h-6.6l-5.4,14.5H29.2z M31.4,18.5l1.7-4.7h0.3
		l1.7,4.7H31.4z"/>
	<g id="XMLID_5788_">
		<g id="XMLID_43_">
			<path id="XMLID_45_" class="st0z" d="M80.9,14c0,0.8,0.2,0.9,1,1c0.3,0,0.6,0.1,1,0.1l2,0.1c5.3,0.3,6.6,0.7,6.6,4.4
				c0,4.8-1,4.8-7.7,4.8c-1.6,0-2.8,0-3.8-0.1c-3.1-0.2-3.7-1.2-3.7-4.5l0-0.4h4.6l0,0.4c0,1.3,0.3,1.4,3,1.4c2.9,0,2.9-0.2,2.9-1.3
				c0-1.1-0.2-1.2-2.5-1.4l-1-0.1c-1.3-0.1-2.4-0.1-3.3-0.2c-2.8-0.3-3.6-1.1-3.6-4.2c0-4.2,1.3-4.5,7.5-4.5c6,0,7.2,0.1,7.2,4.1
				v0.6h-4.6c0-1.8-1-1.5-2.6-1.5C81.1,12.8,80.9,12.9,80.9,14"/>
		</g>
	</g>
</g>
</svg>
