<?xml version="1.0" encoding="utf-8"?>
<!-- Generator: Adobe Illustrator 19.0.0, SVG Export Plug-In . SVG Version: 6.00 Build 0)  -->
<svg version="1.1" id="Layer_1" xmlns="http://www.w3.org/2000/svg" xmlns:xlink="http://www.w3.org/1999/xlink" x="0px" y="0px"
	 viewBox="0 0 304.5 92" style="enable-background:new 0 0 304.5 92;" width="304px" height="92px" xml:space="preserve">
<style type="text/css">
	.st0{fill:#FFD600;}
	.st1{fill:#FFFFFF;}
	.st2{fill:url(#XMLID_41_);}
</style>
<g id="XMLID_5784_">
	<g id="XMLID_5821_">
		<rect id="XMLID_6655_" x="5.2" y="26.2" class="st0" width="212.5" height="40.1"/>
		<g id="XMLID_5822_">
			<path id="XMLID_6652_" d="M0,21h222.9v50.5H0V21z M5.4,66.1h212.1V26.4H5.4V66.1z"/>
			<path id="XMLID_6649_" d="M32.5,35.5H16.3V57h6.8l0-5.4l9.4,0c2.6,0,4.7-2.1,4.7-4.7v-6.8C37.1,37.6,35.1,35.5,32.5,35.5
				 M23.1,46.2v-5.2h6.5c0.9,0,1.6,0.7,1.6,1.6v2.1c0,0.9-0.7,1.6-1.6,1.6H23.1z"/>
			<path id="XMLID_6646_" d="M146.4,48.4l2.6-7h0.4l2.6,7H146.4 M143.2,57l1.4-3.8h9.1L155,57h6.9l-7.8-21.5h-9.8L136.2,57H143.2z"
				/>
			<path id="XMLID_6645_" d="M89.3,57h7v-9.3c0-2.1,0.5-3.7,3.7-3.7c2.3,0,2.9,0.9,2.9,2.6V57h7V45.4c0-3.6-2.5-5.3-7-5.3
				c-2.8,0-5,0.4-6.1,3.4h-0.5v-3.2h-7V57"/>
			<polyline id="XMLID_6644_" points="64.1,35.5 64.1,57 70.9,57 70.9,52.4 73.4,49.8 79.7,57 88.1,57 77.9,45.3 87.6,35.5 
				79.1,35.5 70.9,44.1 70.9,35.5 64.1,35.5 			"/>
			<polyline id="XMLID_6643_" points="171.5,51.1 165.8,35.5 158.9,35.5 166.8,57 176.6,57 184.7,35.5 177.7,35.5 171.9,51.1 
				171.5,51.1 			"/>
			<polyline id="XMLID_6642_" points="89.3,37.6 93.5,33.4 100.7,33.4 96.4,37.6 89.3,37.6 			"/>
			<polyline id="XMLID_6064_" points="206.4,40.5 206.4,35.5 185.7,35.5 185.7,57 206.6,57 206.6,51.3 192.5,51.3 192.5,48.3 
				205.6,48.3 205.6,43.5 192.5,43.5 192.5,40.5 206.4,40.5 			"/>
			<path id="XMLID_5826_" d="M46.6,48.4l2.6-7h0.4l2.6,7H46.6 M43.4,57l1.4-3.8h9.1l1.4,3.8h6.9l-7.8-21.5h-9.8L36.4,57H43.4z"/>
			<path id="XMLID_5824_" d="M120.2,41.8c0,1.2,0.3,1.4,1.4,1.5c0.4,0.1,0.8,0.1,1.4,0.1l2.9,0.2c7.8,0.5,9.7,1,9.7,6.6
				c0,7.1-1.6,7.2-11.4,7.2c-2.3,0-4.2,0-5.7-0.1c-4.7-0.3-5.5-1.8-5.5-6.7l0-0.7h6.8l0,0.6c0,1.9,0.5,2.1,4.4,2.1
				c4.3,0,4.4-0.3,4.4-2c0-1.6-0.4-1.8-3.7-2l-1.5-0.1c-2-0.1-3.6-0.2-4.9-0.4c-4.1-0.5-5.4-1.7-5.4-6.2c0-6.3,1.9-6.7,11.2-6.7
				c8.9,0,10.7,0.1,10.7,6.1v0.9h-6.8c0-2.7-1.5-2.2-3.9-2.2C120.6,39.9,120.2,40.1,120.2,41.8"/>
		</g>
	</g>
	<g id="XMLID_5819_">
		<path id="XMLID_5820_" d="M303.9,43.2c1.3-2.8-0.1-7.2-0.8-9.8c-7-24.4-32.4-38.6-56.8-31.6c-24.4,7-38.6,32.4-31.6,56.8
			c7,24.4,32.4,38.6,56.8,31.6c2.2-0.6,5.3-2,6.9-3.5C281.8,82.7,303.1,44.6,303.9,43.2z"/>
	</g>
	<g id="XMLID_5787_">
		<g id="XMLID_5806_">
			<path id="XMLID_5817_" class="st1" d="M230,41l-0.3-1.2c-0.1-0.4-0.3-0.8-0.4-1c-0.2-0.2-0.5-0.3-1-0.1c-0.4,0.1-0.6,0.3-0.7,0.6
				c-0.1,0.3,0,0.6,0,0.9l0.2,0.6c0.1,0.3,0.2,0.6,0.4,0.7c0.2,0.2,0.4,0.3,0.7,0.4l4,1.5c0.5,0.2,0.9,0.3,1.3,0.5
				c0.3,0.2,0.6,0.4,0.9,0.6c0.2,0.3,0.4,0.6,0.6,0.9c0.2,0.4,0.3,0.8,0.5,1.4c0.1,0.5,0.2,1.1,0.3,1.6c0.1,0.6,0,1.1-0.2,1.7
				c-0.2,0.5-0.7,1-1.3,1.5c-0.6,0.5-1.6,0.9-2.8,1.2c-1.3,0.3-2.3,0.4-3.2,0.3c-0.9-0.1-1.6-0.4-2-0.9c-0.3-0.3-0.6-0.8-0.8-1.3
				c-0.2-0.5-0.3-0.9-0.4-1.3l-0.3-1l4-1.1l0.4,1.3c0,0.1,0.1,0.2,0.1,0.4c0.1,0.1,0.1,0.3,0.2,0.4c0.1,0.1,0.3,0.2,0.4,0.3
				c0.2,0.1,0.4,0,0.7,0c0.3-0.1,0.5-0.2,0.6-0.3c0.1-0.1,0.3-0.2,0.3-0.4c0.1-0.1,0.1-0.3,0.1-0.4c0-0.1,0-0.3-0.1-0.4
				c-0.1-0.3-0.2-0.6-0.2-0.8c-0.1-0.2-0.2-0.4-0.3-0.5c-0.1-0.1-0.3-0.3-0.6-0.4c-0.2-0.1-0.6-0.2-1-0.4l-2.9-1.1
				c-0.4-0.2-0.7-0.3-1.1-0.4c-0.3-0.1-0.6-0.3-0.9-0.5c-0.3-0.2-0.6-0.5-0.8-0.9c-0.2-0.4-0.5-0.9-0.6-1.6
				c-0.2-0.9-0.3-1.6-0.3-2.3c0-0.7,0.2-1.2,0.5-1.7c0.3-0.5,0.8-0.9,1.4-1.2c0.6-0.3,1.4-0.7,2.4-0.9c1.1-0.3,2-0.4,2.7-0.4
				c0.7,0.1,1.2,0.2,1.7,0.6c0.4,0.3,0.7,0.7,1,1.3c0.2,0.5,0.4,1.1,0.6,1.8l0.2,0.9L230,41z"/>
			<path id="XMLID_5815_" class="st1" d="M241.1,35.6l3.7,13.7l-4.1,1.1l-3.7-13.7l-3.3,0.9l-0.8-2.9l10.7-2.9l0.8,2.9L241.1,35.6z"
				/>
			<path id="XMLID_5813_" class="st1" d="M249.1,48.2l-4.4-16.6l4-1.1l4.4,16.6L249.1,48.2z"/>
			<path id="XMLID_5811_" class="st1" d="M263.7,39c0.2,0.9,0.4,1.7,0.4,2.4c0,0.7-0.2,1.3-0.5,1.8c-0.3,0.5-0.8,1-1.5,1.3
				c-0.7,0.4-1.5,0.7-2.6,1c-1,0.3-1.9,0.4-2.6,0.4s-1.3-0.2-1.8-0.4c-0.5-0.2-0.9-0.6-1.2-1.1c-0.3-0.5-0.5-1-0.7-1.6l-2.3-8.7
				c-0.2-0.6-0.2-1.3-0.2-1.8c0-0.6,0.2-1.1,0.5-1.6c0.3-0.5,0.8-0.9,1.4-1.3c0.6-0.4,1.4-0.7,2.4-1c1-0.3,1.9-0.4,2.6-0.4
				c0.7,0,1.4,0.2,1.9,0.4c0.5,0.3,0.9,0.7,1.3,1.2c0.3,0.5,0.6,1.1,0.8,1.8l0.5,2l-4,1.1l-0.6-2.2c-0.1-0.5-0.3-0.8-0.6-1
				c-0.3-0.1-0.7-0.2-1.2,0c-0.5,0.1-0.8,0.4-0.9,0.7c-0.1,0.3-0.1,0.7,0.1,1.2l2.2,8.3c0.1,0.5,0.3,0.9,0.6,1.2
				c0.2,0.2,0.6,0.3,1.2,0.1c0.6-0.1,0.9-0.4,1-0.7c0.1-0.3,0.1-0.7-0.1-1.3l-0.6-2.1l4-1.1L263.7,39z"/>
			<path id="XMLID_5809_" class="st1" d="M273.7,41.6l-5.5-7.2l2.2,8.1l-4,1.1l-4.4-16.6l4-1.1l2,7.5l1-8.3L273,24l-1.3,8.8l6.1,7.7
				L273.7,41.6z"/>
			<path id="XMLID_5807_" class="st1" d="M284.5,32.4l1.6,5.8l-3.9,1.1l-1.6-5.8l-6.8-9.7l3.9-1.1l4,6.8l0.1-7.9l4-1.1L284.5,32.4z"
				/>
		</g>
		<g id="XMLID_5788_">
			<g id="XMLID_5789_">
				<path id="XMLID_5804_" class="st0" d="M251,63.7c0.3,0.9,0.4,1.8,0.4,2.5c0,0.7-0.2,1.3-0.5,1.8c-0.3,0.5-0.8,1-1.5,1.3
					c-0.7,0.4-1.6,0.7-2.7,1c-1,0.3-1.9,0.4-2.6,0.4c-0.7,0-1.3-0.2-1.8-0.4c-0.5-0.3-0.9-0.6-1.2-1.1c-0.3-0.5-0.5-1-0.7-1.7
					l-2.4-8.8c-0.2-0.7-0.2-1.3-0.2-1.9c0-0.6,0.2-1.1,0.5-1.6c0.3-0.5,0.8-0.9,1.4-1.3c0.6-0.4,1.4-0.7,2.4-1
					c1-0.3,1.9-0.4,2.6-0.4c0.7,0,1.4,0.2,1.9,0.5c0.5,0.3,0.9,0.7,1.3,1.2c0.3,0.5,0.6,1.1,0.8,1.8l0.5,2l-4,1.1l-0.6-2.2
					c-0.1-0.5-0.3-0.8-0.6-1c-0.3-0.1-0.7-0.2-1.2,0c-0.5,0.1-0.8,0.4-0.9,0.7c-0.1,0.3-0.1,0.7,0.1,1.2l2.2,8.4
					c0.1,0.5,0.3,0.9,0.6,1.2c0.2,0.2,0.6,0.3,1.3,0.1c0.6-0.2,0.9-0.4,1-0.7c0.1-0.3,0.1-0.8-0.1-1.3l-0.6-2.1l4.1-1.1L251,63.7z"
					/>
				<path id="XMLID_5802_" class="st0" d="M253.4,68.3l-4.5-16.9l4.1-1.1l3.7,13.9l4.2-1.1l0.8,3L253.4,68.3z"/>
				<path id="XMLID_5797_" class="st0" d="M262.3,47.9l3.4,12.7c0.1,0.5,0.3,0.8,0.6,1c0.3,0.2,0.6,0.3,1.1,0.1
					c0.5-0.1,0.8-0.4,0.9-0.7c0.1-0.3,0.1-0.7-0.1-1.2l-3.4-12.7l4.1-1.1l3.2,12.1c0.2,0.7,0.3,1.4,0.4,2.1c0,0.6-0.1,1.2-0.3,1.8
					c-0.2,0.5-0.7,1-1.3,1.5c-0.6,0.4-1.5,0.8-2.6,1.1c-1.1,0.3-2,0.4-2.7,0.4c-0.8,0-1.4-0.2-1.9-0.5c-0.5-0.3-0.9-0.7-1.2-1.2
					c-0.3-0.5-0.6-1.1-0.7-1.8L258.2,49L262.3,47.9z"/>
				<path id="XMLID_5790_" class="st0" d="M276.4,44.1c1.4-0.4,2.5-0.4,3.4,0s1.4,1.1,1.7,2.1l0.3,1.1c0.2,0.6,0.2,1.1,0.3,1.5
					c0,0.4,0,0.8-0.1,1.1c-0.1,0.3-0.3,0.6-0.5,0.8c-0.2,0.2-0.5,0.5-0.9,0.7c0.5,0,1,0,1.4,0.2c0.4,0.1,0.7,0.3,0.9,0.5
					c0.3,0.2,0.5,0.5,0.7,0.9c0.2,0.4,0.3,0.8,0.5,1.3l0.2,0.8c0.3,1,0.4,1.9,0.3,2.6c-0.1,0.7-0.2,1.2-0.5,1.6
					c-0.3,0.4-0.7,0.7-1.2,1c-0.5,0.2-1,0.4-1.6,0.6l-6.3,1.7l-4.5-16.9L276.4,44.1z M276,51.3l1.7-0.4c0.5-0.1,0.8-0.4,0.8-0.7
					c0-0.3,0-0.8-0.2-1.4c-0.2-0.7-0.4-1.1-0.6-1.3c-0.2-0.2-0.6-0.2-1.1-0.1l-1.6,0.4L276,51.3z M277.9,58.5l1.6-0.4
					c0.3-0.1,0.5-0.2,0.7-0.3c0.2-0.1,0.3-0.3,0.3-0.5c0-0.2,0-0.4,0-0.7c0-0.3-0.1-0.6-0.2-1c-0.1-0.4-0.2-0.7-0.3-1
					c-0.1-0.3-0.2-0.5-0.3-0.7c-0.1-0.2-0.3-0.2-0.5-0.3c-0.2,0-0.4,0-0.8,0.1l-1.6,0.4L277.9,58.5z"/>
			</g>
		</g>
	</g>
	
		<linearGradient id="XMLID_41_" gradientUnits="userSpaceOnUse" x1="156.4424" y1="794.4893" x2="159.8455" y2="798.0031" gradientTransform="matrix(0.9617 -0.2742 0.2742 0.9617 -81.0766 -658.9828)">
		<stop  offset="0.3194" style="stop-color:#FFFFFF"/>
		<stop  offset="0.4335" style="stop-color:#FBFBFB"/>
		<stop  offset="0.5556" style="stop-color:#EEEEEE"/>
		<stop  offset="0.6813" style="stop-color:#D8D8D8"/>
		<stop  offset="0.8094" style="stop-color:#BBBBBB"/>
		<stop  offset="0.9383" style="stop-color:#959595"/>
		<stop  offset="1" style="stop-color:#808080"/>
	</linearGradient>
	<path id="XMLID_5785_" class="st2" d="M304.4,41.4c-0.1,0.7-0.1,0.9-0.6,1.8c-0.8,1.5-2.5,2.6-3.5,3.3
		C289,53.8,280.8,67,280.1,80.9l0,0c0,0,0,1.1,0,1.5c-0.1,1.3-0.5,3.1-1.7,4.3c-0.3,0.3-0.6,0.5-0.9,0.8c1-0.6,2.1-1.6,2.7-2.4
		c0.7-1,23.2-39.6,23.5-40.4c0.8-1.6,0.8-3.4,0.8-3.4S304.4,41.4,304.4,41.4z"/>
</g>
</svg>
