<?xml version="1.0" encoding="utf-8"?>
<!-- Generator: Adobe Illustrator 19.1.0, SVG Export Plug-In . SVG Version: 6.00 Build 0)  -->
<svg version="1.1" id="Layer_1" xmlns="http://www.w3.org/2000/svg" xmlns:xlink="http://www.w3.org/1999/xlink" x="0px" y="0px"
	 viewBox="-625.1 349.9 960 143" style="enable-background:new -625.1 349.9 960 143;" xml:space="preserve">
<style type="text/css">
	.st0{clip-path:url(#SVGID_2_);fill:#FFFFFF;}
	.st1{clip-path:url(#SVGID_4_);fill:#FFFFFF;}
	.st2{clip-path:url(#SVGID_6_);fill:#FFFFFF;}
	.st3{clip-path:url(#SVGID_8_);fill:#FFFFFF;}
	.st4{clip-path:url(#SVGID_10_);fill:#FFFFFF;}
	.st5{clip-path:url(#SVGID_12_);fill:#FFFFFF;}
	.st6{clip-path:url(#SVGID_14_);fill:#FFFFFF;}
	.st7{clip-path:url(#SVGID_16_);fill:#FFFFFF;}
	.st8{clip-path:url(#SVGID_18_);fill:#FFFFFF;}
	.st9{clip-path:url(#SVGID_20_);fill:#FFFFFF;}
	.st10{clip-path:url(#SVGID_22_);fill:#FFFFFF;}
	.st11{clip-path:url(#SVGID_24_);fill:#FFFFFF;}
	.st12{clip-path:url(#SVGID_26_);fill:#FFFFFF;}
	.st13{clip-path:url(#SVGID_28_);fill:#FFFFFF;}
	.st14{clip-path:url(#SVGID_30_);fill:#FFDB00;}
</style>
<g id="XMLID_588_">
	<g>
		<g>
			<defs>
				<rect id="SVGID_1_" x="150.5" y="350" width="210.7" height="133.9"/>
			</defs>
			<clipPath id="SVGID_2_">
				<use xlink:href="#SVGID_1_"  style="overflow:visible;"/>
			</clipPath>
			<path id="XMLID_4920_" class="st0" d="M252.3,446.5L231.5,408c1.4,4.9,2.8,9.8,4.3,14.6c0.6,2.1,1.2,4.2,1.9,6.5
				c0.7,2.3,1.3,4.5,2,6.8c0.6,2.3,1.3,4.5,1.9,6.7c0.6,2.2,1.3,4.3,1.8,6.3l-9.5,2.5l-14.7-54.9l13-3.5l20.7,37.7
				c-1.8-6.2-3.6-12-5.2-17.4c-0.7-2.3-1.3-4.6-2-6.9c-0.7-2.3-1.3-4.5-1.9-6.6s-1.2-3.9-1.6-5.5c-0.5-1.6-0.8-2.8-1.1-3.7l9.3-2.5
				l14.7,54.9L252.3,446.5z"/>
		</g>
	</g>
	<g>
		<g>
			<defs>
				<rect id="SVGID_3_" x="150.5" y="350" width="210.7" height="133.9"/>
			</defs>
			<clipPath id="SVGID_4_">
				<use xlink:href="#SVGID_3_"  style="overflow:visible;"/>
			</clipPath>
			<polygon id="XMLID_4918_" class="st1" points="277.9,430.5 295.6,425.7 297.9,434.3 269.2,442 267.5,435.6 274.2,390.8 
				259,394.9 256.7,386.4 283.5,379.3 284.9,384.7 			"/>
		</g>
	</g>
	<g>
		<g>
			<defs>
				<rect id="SVGID_5_" x="150.5" y="350" width="210.7" height="133.9"/>
			</defs>
			<clipPath id="SVGID_6_">
				<use xlink:href="#SVGID_5_"  style="overflow:visible;"/>
			</clipPath>
			<path id="XMLID_4890_" class="st2" d="M235.6,460.8c-0.2-0.7-0.3-1.4-0.3-2s0.2-1.2,0.5-1.7s0.8-1,1.4-1.4c0.6-0.4,1.4-0.7,2.5-1
				c1.6-0.4,2.9-0.4,4.1,0c1.1,0.5,1.9,1.4,2.3,2.9l2.9,10.9c0.2,0.8,0.3,1.6,0.2,2.2s-0.3,1.2-0.7,1.7s-0.8,0.9-1.4,1.2
				c-0.6,0.3-1.3,0.6-2,0.8c-0.8,0.2-1.6,0.3-2.2,0.3c-0.7,0-1.3-0.1-1.9-0.3c-0.5-0.2-1-0.6-1.4-1.1c-0.4-0.5-0.7-1.1-0.9-1.9
				L235.6,460.8z M242.7,459.2c-0.1-0.2-0.1-0.5-0.2-0.8c-0.1-0.3-0.2-0.5-0.4-0.7s-0.4-0.4-0.7-0.4c-0.3-0.1-0.6-0.1-1,0
				c-0.4,0.1-0.8,0.3-1,0.5c-0.2,0.2-0.3,0.5-0.4,0.8c-0.1,0.3,0,0.6,0,0.9c0.1,0.3,0.1,0.6,0.2,0.8l2.6,9.5
				c0.1,0.3,0.2,0.5,0.3,0.8c0.1,0.3,0.2,0.5,0.4,0.7c0.2,0.2,0.4,0.3,0.7,0.4c0.3,0.1,0.6,0.1,1.1-0.1c0.4-0.1,0.7-0.3,0.9-0.5
				c0.2-0.2,0.3-0.4,0.4-0.7c0-0.3,0-0.5,0-0.8c-0.1-0.3-0.1-0.5-0.2-0.7L242.7,459.2z"/>
		</g>
	</g>
	<g>
		<g>
			<defs>
				<rect id="SVGID_7_" x="150.5" y="350" width="210.7" height="133.9"/>
			</defs>
			<clipPath id="SVGID_8_">
				<use xlink:href="#SVGID_7_"  style="overflow:visible;"/>
			</clipPath>
			<polygon id="XMLID_4884_" class="st3" points="265.8,468.4 262.1,469.3 256.8,456.9 258.3,470.4 254.5,471.4 246,453.4 
				249.6,452.4 255.4,466.2 253.6,451.4 256.9,450.5 262.7,464.2 260.9,449.4 264.4,448.5 			"/>
		</g>
	</g>
	<g>
		<g>
			<defs>
				<rect id="SVGID_9_" x="150.5" y="350" width="210.7" height="133.9"/>
			</defs>
			<clipPath id="SVGID_10_">
				<use xlink:href="#SVGID_9_"  style="overflow:visible;"/>
			</clipPath>
			<path id="XMLID_4877_" class="st4" d="M277.3,465.3l-7.1-13.3c0.5,1.7,1,3.4,1.5,5c0.2,0.7,0.4,1.5,0.7,2.2
				c0.2,0.8,0.5,1.6,0.7,2.3c0.2,0.8,0.4,1.6,0.7,2.3c0.2,0.8,0.4,1.5,0.6,2.2l-3.3,0.9L266,448l4.5-1.2l7.1,12.9
				c-0.6-2.1-1.2-4.1-1.8-6c-0.2-0.8-0.5-1.6-0.7-2.4c-0.2-0.8-0.5-1.6-0.7-2.3c-0.2-0.7-0.4-1.3-0.6-1.9c-0.2-0.5-0.3-1-0.4-1.3
				l3.2-0.9l5.1,18.9L277.3,465.3z"/>
		</g>
	</g>
	<g>
		<g>
			<defs>
				<rect id="SVGID_11_" x="150.5" y="350" width="210.7" height="133.9"/>
			</defs>
			<clipPath id="SVGID_12_">
				<use xlink:href="#SVGID_11_"  style="overflow:visible;"/>
			</clipPath>
			<polygon id="XMLID_4841_" class="st5" points="283.9,463.5 278.8,444.6 287.9,442.2 288.7,445 283,446.6 284.2,451 289.6,449.6 
				290.3,452.4 285,453.9 286.6,459.7 292.5,458.1 293.3,461 			"/>
		</g>
	</g>
	<g>
		<g>
			<defs>
				<rect id="SVGID_13_" x="150.5" y="350" width="210.7" height="133.9"/>
			</defs>
			<clipPath id="SVGID_14_">
				<use xlink:href="#SVGID_13_"  style="overflow:visible;"/>
			</clipPath>
			<path id="XMLID_4835_" class="st6" d="M296,440c1.3-0.4,2.5-0.2,3.4,0.3c0.9,0.6,1.6,1.6,2,3.1l2.5,9.5c0.3,1,0.4,1.8,0.3,2.5
				c-0.1,0.7-0.2,1.3-0.6,1.7c-0.3,0.5-0.8,0.9-1.3,1.2c-0.6,0.3-1.2,0.5-1.9,0.7l-5.6,1.5l-5.1-18.9L296,440z M297.7,456.9l1.4-0.4
				c0.8-0.2,1.3-0.5,1.5-0.9c0.2-0.4,0.2-0.9,0-1.7l-2.5-9.5c-0.2-0.8-0.5-1.2-0.8-1.4c-0.3-0.2-0.9-0.2-1.6,0l-1.6,0.4L297.7,456.9
				z"/>
		</g>
	</g>
	<g>
		<g>
			<defs>
				<rect id="SVGID_15_" x="150.5" y="350" width="210.7" height="133.9"/>
			</defs>
			<clipPath id="SVGID_16_">
				<use xlink:href="#SVGID_15_"  style="overflow:visible;"/>
			</clipPath>
			<path id="XMLID_4805_" class="st7" d="M219.4,374.8c0.6-0.2,1.2-0.2,1.6-0.1s0.7,0.3,1,0.6c0.3,0.3,0.5,0.6,0.6,1
				c0.1,0.4,0.3,0.8,0.4,1.2l0.5,2c0.2,0.7,0.3,1.2,0.3,1.7s0,0.9-0.2,1.2c-0.1,0.3-0.4,0.6-0.8,0.8s-0.9,0.4-1.5,0.6l-2.4,0.6
				l1.7,6.4l-2.8,0.8l-4.1-15.3L219.4,374.8z M218.4,382.3l1.4-0.4c0.6-0.1,0.9-0.4,0.9-0.6c0.1-0.3,0-0.6-0.1-1.1l-0.4-1.6
				c-0.1-0.5-0.3-0.9-0.5-1.1c-0.2-0.2-0.6-0.3-1.1-0.1l-1.4,0.4L218.4,382.3z"/>
		</g>
	</g>
	<g>
		<g>
			<defs>
				<rect id="SVGID_17_" x="150.5" y="350" width="210.7" height="133.9"/>
			</defs>
			<clipPath id="SVGID_18_">
				<use xlink:href="#SVGID_17_"  style="overflow:visible;"/>
			</clipPath>
			<path id="XMLID_4475_" class="st8" d="M229.2,372.2c1-0.3,1.7-0.2,2.3,0.1c0.6,0.3,1,1,1.2,1.9l0.6,2.1c0.1,0.4,0.2,0.7,0.2,1
				c0,0.3,0,0.6-0.1,0.8c-0.1,0.3-0.2,0.5-0.5,0.7c-0.2,0.2-0.5,0.4-0.9,0.6c0.5,0,0.9,0,1.2,0.2c0.3,0.1,0.6,0.3,0.8,0.5
				s0.4,0.5,0.5,0.7c0.1,0.3,0.2,0.5,0.3,0.7l0.8,3.1c0,0.1,0.1,0.2,0.1,0.4c0.1,0.2,0.1,0.4,0.2,0.6c0.1,0.2,0.2,0.4,0.4,0.5
				c0.1,0.2,0.3,0.3,0.5,0.3l-3.1,0.8c-0.2-0.2-0.3-0.3-0.4-0.5s-0.3-0.5-0.4-0.8l-1-3.6c-0.2-0.6-0.4-1-0.6-1.2
				c-0.1-0.1-0.5-0.1-1.2,0l-1.4,0.4l1.8,6.7l-2.8,0.8l-4.1-15.3L229.2,372.2z M228.1,379.3l1.5-0.4c0.5-0.1,0.8-0.3,0.9-0.6
				c0.1-0.3,0.1-0.6,0-1.2l-0.4-1.5c-0.1-0.5-0.3-0.8-0.6-0.9c-0.3-0.1-0.6-0.1-1,0l-1.5,0.4L228.1,379.3z"/>
		</g>
	</g>
	<g>
		<g>
			<defs>
				<rect id="SVGID_19_" x="150.5" y="350" width="210.7" height="133.9"/>
			</defs>
			<clipPath id="SVGID_20_">
				<use xlink:href="#SVGID_19_"  style="overflow:visible;"/>
			</clipPath>
			<path id="XMLID_4413_" class="st9" d="M234.6,374.4c-0.2-0.6-0.2-1.1-0.2-1.6s0.1-1,0.4-1.4c0.2-0.4,0.6-0.8,1.1-1.1
				c0.5-0.3,1.2-0.6,2-0.8c1.3-0.3,2.4-0.3,3.3,0c0.9,0.4,1.5,1.2,1.8,2.4l2.4,8.9c0.2,0.7,0.2,1.3,0.1,1.8s-0.3,1-0.6,1.3
				c-0.3,0.4-0.7,0.7-1.2,1c-0.5,0.3-1,0.5-1.7,0.6c-0.7,0.2-1.3,0.3-1.8,0.3c-0.6,0-1.1-0.1-1.5-0.3c-0.4-0.2-0.8-0.5-1.2-0.9
				c-0.3-0.4-0.6-0.9-0.7-1.5L234.6,374.4z M240.3,373.2c-0.1-0.2-0.1-0.4-0.2-0.6c-0.1-0.2-0.2-0.4-0.3-0.6
				c-0.1-0.2-0.3-0.3-0.5-0.4s-0.5-0.1-0.8,0c-0.4,0.1-0.6,0.2-0.8,0.4c-0.2,0.2-0.3,0.4-0.3,0.6c0,0.2,0,0.5,0,0.7
				c0,0.2,0.1,0.5,0.2,0.7l2.1,7.7c0.1,0.2,0.1,0.4,0.2,0.7c0.1,0.2,0.2,0.4,0.3,0.6c0.1,0.2,0.3,0.3,0.5,0.3c0.2,0.1,0.5,0,0.9,0
				c0.4-0.1,0.6-0.2,0.8-0.4c0.2-0.2,0.3-0.4,0.3-0.6c0-0.2,0-0.4,0-0.6s-0.1-0.4-0.1-0.6L240.3,373.2z"/>
		</g>
	</g>
	<g>
		<g>
			<defs>
				<rect id="SVGID_21_" x="150.5" y="350" width="210.7" height="133.9"/>
			</defs>
			<clipPath id="SVGID_22_">
				<use xlink:href="#SVGID_21_"  style="overflow:visible;"/>
			</clipPath>
			<path id="XMLID_4412_" class="st10" d="M246.7,367.5l3.1,11.4c0.1,0.2,0.1,0.5,0.2,0.7s0.2,0.4,0.3,0.5s0.3,0.2,0.5,0.3
				c0.2,0.1,0.5,0,0.8,0c0.3-0.1,0.6-0.2,0.7-0.4c0.1-0.2,0.2-0.3,0.3-0.5c0-0.2,0-0.4,0-0.6c0-0.2-0.1-0.5-0.2-0.7l-3-11.4l2.8-0.8
				l3.2,11.9c0.2,0.6,0.2,1.2,0.2,1.6c0,0.5-0.2,0.9-0.3,1.2c-0.2,0.3-0.4,0.6-0.7,0.9c-0.3,0.2-0.6,0.4-0.9,0.6
				c-0.3,0.2-0.6,0.3-0.8,0.4c-0.3,0.1-0.5,0.2-0.7,0.2c-1.3,0.4-2.4,0.3-3.3-0.2c-0.9-0.5-1.5-1.3-1.8-2.6l-3.2-11.8L246.7,367.5z"
				/>
		</g>
	</g>
	<g>
		<g>
			<defs>
				<rect id="SVGID_23_" x="150.5" y="350" width="210.7" height="133.9"/>
			</defs>
			<clipPath id="SVGID_24_">
				<use xlink:href="#SVGID_23_"  style="overflow:visible;"/>
			</clipPath>
			<path id="XMLID_3665_" class="st11" d="M258.9,364.2c1.1-0.3,2-0.2,2.8,0.3c0.8,0.5,1.3,1.3,1.6,2.5l2.1,7.7
				c0.2,0.8,0.3,1.5,0.2,2c0,0.6-0.2,1-0.5,1.4c-0.3,0.4-0.6,0.7-1.1,0.9c-0.4,0.2-1,0.4-1.6,0.6l-4.5,1.2l-4.1-15.3L258.9,364.2z
				 M260.3,377.9l1.2-0.3c0.6-0.2,1-0.4,1.2-0.7c0.2-0.3,0.2-0.8,0-1.4l-2.1-7.7c-0.2-0.6-0.4-1-0.7-1.2c-0.3-0.2-0.7-0.2-1.3,0
				l-1.2,0.4L260.3,377.9z"/>
		</g>
	</g>
	<g>
		<g>
			<defs>
				<rect id="SVGID_25_" x="150.5" y="350" width="210.7" height="133.9"/>
			</defs>
			<clipPath id="SVGID_26_">
				<use xlink:href="#SVGID_25_"  style="overflow:visible;"/>
			</clipPath>
			<polygon id="XMLID_2089_" class="st12" points="268.2,378.2 264.1,362.8 266.9,362.1 270.4,375.1 274.5,374 275.1,376.3 			"/>
		</g>
	</g>
	<g>
		<g>
			<defs>
				<rect id="SVGID_27_" x="150.5" y="350" width="210.7" height="133.9"/>
			</defs>
			<clipPath id="SVGID_28_">
				<use xlink:href="#SVGID_27_"  style="overflow:visible;"/>
			</clipPath>
			<polygon id="XMLID_1275_" class="st13" points="279,370.4 280.3,374.9 277.4,375.7 276.1,371 270.2,361.2 273.2,360.4 
				276.8,367.7 276.2,359.6 279.2,358.8 			"/>
		</g>
	</g>
	<g>
		<g>
			<defs>
				<rect id="SVGID_29_" x="150.5" y="350" width="210.7" height="153.8"/>
			</defs>
			<clipPath id="SVGID_30_">
				<use xlink:href="#SVGID_29_"  style="overflow:visible;"/>
			</clipPath>
			<path id="XMLID_931_" class="st14" d="M259.3,349.1c37.6,0,68.1,30.5,68.1,68.1s-30.5,68.1-68.1,68.1s-68.1-30.5-68.1-68.1
				S221.7,349.1,259.3,349.1 M259.3,342.7c-10.1,0-19.8,2-29,5.9c-8.9,3.8-16.8,9.1-23.7,16c-6.8,6.8-12.2,14.8-16,23.7
				c-3.9,9.2-5.9,18.9-5.9,29s2,19.8,5.9,29c3.8,8.9,9.1,16.8,16,23.7c6.8,6.8,14.8,12.2,23.7,16c9.2,3.9,18.9,5.9,29,5.9
				s19.8-2,29-5.9c8.9-3.8,16.8-9.1,23.7-16c6.8-6.8,12.2-14.8,16-23.7c3.9-9.2,5.9-18.9,5.9-29s-2-19.8-5.9-29
				c-3.8-8.9-9.1-16.8-16-23.7c-6.8-6.8-14.8-12.2-23.7-16C279.1,344.7,269.3,342.7,259.3,342.7"/>
		</g>
	</g>
</g>
</svg>
