<?xml version="1.0" encoding="utf-8"?>
<!-- Generator: Adobe Illustrator 19.0.0, SVG Export Plug-In . SVG Version: 6.00 Build 0)  -->
<svg version="1.1" id="Layer_1" xmlns="http://www.w3.org/2000/svg" xmlns:xlink="http://www.w3.org/1999/xlink" x="0px" y="0px"
	 viewBox="-468 270 22 22" style="enable-background:new -468 270 22 22;" xml:space="preserve">
<g id="Layer_1_1_">
</g>
<g id="Artwork">
	<path d="M-457,270c-6.1,0-11,4.9-11,11s4.9,11,11,11s11-4.9,11-11S-450.9,270-457,270z M-457,291c-5.5,0-10-4.5-10-10s4.5-10,10-10
		s10,4.5,10,10S-451.5,291-457,291z M-456.9,287.3c2.8,0,5.1-2.3,5.1-5.1h-10.1C-461.9,285.1-459.7,287.3-456.9,287.3z
		 M-458.9,278.2c0-1.1-0.9-2-2-2s-2,0.9-2,2s0.9,2,2,2S-458.9,279.3-458.9,278.2z M-452.8,276.2c-1.1,0-2,0.9-2,2s0.9,2,2,2
		s2-0.9,2-2S-451.7,276.2-452.8,276.2z"/>
</g>
</svg>
