<?xml version="1.0" encoding="utf-8"?>
<!-- Generator: Adobe Illustrator 19.0.0, SVG Export Plug-In . SVG Version: 6.00 Build 0)  -->
<svg version="1.1" id="Layer_1" xmlns="http://www.w3.org/2000/svg" xmlns:xlink="http://www.w3.org/1999/xlink" x="0px" y="0px"
	 viewBox="0 0 22 22" style="enable-background:new 0 0 22 22;" width="22px" height="22px" xml:space="preserve">
<g>
	<g id="XMLID_3210_">
		<path id="XMLID_1896_" d="M11.7,20.3c-5.1,0-9-4.4-9-8.1l1.9-1.1c0,3.3,3.2,7.1,7.1,7.1s7.1-3.2,7.1-7.2s-3.2-7.1-7.1-7.1
			c-2.6,0-5,1.4-6.3,3.8l-1.9-1c1.6-3,4.8-4.9,8.2-4.9c5.1,0,9.3,4.2,9.3,9.3S16.8,20.3,11.7,20.3z"/>
	</g>
	<g id="XMLID_1200_">
		<polygon id="XMLID_1897_" points="1,14 4,9 7,14 		"/>
	</g>
	<g id="XMLID_1197_">
		<circle id="XMLID_1898_" cx="11.4" cy="11.1" r="1.7"/>
	</g>
	<g id="XMLID_2_">
		<rect id="XMLID_1140_" x="10.7" y="5.7" width="1.5" height="5.8"/>
	</g>
	<g id="XMLID_1_">
		
			<rect id="XMLID_1132_" x="12.1" y="10.2" transform="matrix(-0.7071 0.7071 -0.7071 -0.7071 31.3756 12.2004)" width="2.1" height="4.9"/>
	</g>
</g>
</svg>
