<?xml version="1.0" encoding="utf-8"?>
<!-- Generator: Adobe Illustrator 19.0.0, SVG Export Plug-In . SVG Version: 6.00 Build 0)  -->
<svg version="1.1" id="Layer_1" xmlns="http://www.w3.org/2000/svg" xmlns:xlink="http://www.w3.org/1999/xlink" x="0px" y="0px"
	 viewBox="-468 270 22 22" style="enable-background:new -468 270 22 22;" xml:space="preserve">
<g id="Layer_1_1_">
</g>
<g id="Artwork">
	<path d="M-458.9,278.2h-4c0,1.1,0.9,3,2,3S-458.9,279.3-458.9,278.2z M-460.9,285.5l0.2,1l9.8-2.4l-0.2-1L-460.9,285.5z
		 M-452.8,281.3c1.1,0,2-1.9,2-3h-4C-454.9,279.3-453.9,281.3-452.8,281.3z M-457,270c-6.1,0-11,4.9-11,11s4.9,11,11,11
		s11-4.9,11-11S-450.9,270-457,270z M-457,291c-5.5,0-10-4.5-10-10s4.5-10,10-10s10,4.5,10,10S-451.5,291-457,291z"/>
</g>
</svg>
