<?xml version="1.0" encoding="utf-8"?>
<!-- Generator: Adobe Illustrator 19.1.0, SVG Export Plug-In . SVG Version: 6.00 Build 0)  -->
<svg version="1.1" id="Layer_1" xmlns="http://www.w3.org/2000/svg" xmlns:xlink="http://www.w3.org/1999/xlink" x="0px" y="0px"
	 viewBox="0 0 42 42" enable-background="new 0 0 42 42" xml:space="preserve">
<g id="XMLID_2600_">
	<circle fill="#FFD600" cx="21.1" cy="20.5" r="17.5"/>
</g>
<g id="XMLID_1022_">
	<g id="XMLID_2110_">
		<path d="M28.5,28.5c-0.8,0-1.5-0.7-1.5-1.5V14c0-0.8,0.7-1.5,1.5-1.5S30,13.2,30,14v13C30,27.8,29.3,28.5,28.5,28.5z"/>
	</g>
	<g id="XMLID_1074_">
		<path d="M21.5,28.5c-0.8,0-1.5-0.7-1.5-1.5V14c0-0.8,0.7-1.5,1.5-1.5S23,13.2,23,14v13C23,27.8,22.3,28.5,21.5,28.5z"/>
	</g>
	<g id="XMLID_1029_">
		<path d="M14.5,28.5c-0.8,0-1.5-0.7-1.5-1.5V14c0-0.8,0.7-1.5,1.5-1.5S16,13.2,16,14v13C16,27.8,15.3,28.5,14.5,28.5z"/>
	</g>
</g>
</svg>
