<?xml version="1.0" encoding="utf-8"?>
<!-- Generator: Adobe Illustrator 19.0.0, SVG Export Plug-In . SVG Version: 6.00 Build 0)  -->
<svg version="1.1" id="Layer_1" xmlns="http://www.w3.org/2000/svg" xmlns:xlink="http://www.w3.org/1999/xlink" x="0px" y="0px"
	 viewBox="0 0 22 22" style="enable-background:new 0 0 22 22;" width="22px" height="22px" xml:space="preserve">
<g>
	<path d="M2,17.6v-15h18v15H2z M3,16.6h16v-10H3V16.6z M10,5.6v-2H4v2h4H10z"/>
	<path d="M19.5,3.1v3h-1h-8v-1v-1v-1H19.5 M3.5,3.1v1v1v1h-1v1v9v1h1h15h1h-17v-10v-4H3.5 M20.5,2.1h-19v1v4v11h19v-11v-4V2.1
		L20.5,2.1z M8.5,5.1v-1h1v1H8.5L8.5,5.1z M6.5,5.1v-1h1v1H6.5L6.5,5.1z M4.5,5.1v-1h1v1H4.5L4.5,5.1z M3.5,16.1v-9h15v9H3.5
		L3.5,16.1z"/>
</g>
</svg>
