<?xml version="1.0" encoding="utf-8"?>
<!-- Generator: Adobe Illustrator 19.0.0, SVG Export Plug-In . SVG Version: 6.00 Build 0)  -->
<svg version="1.1" id="Layer_1" xmlns="http://www.w3.org/2000/svg" xmlns:xlink="http://www.w3.org/1999/xlink" x="0px" y="0px"
	 viewBox="0 0 22 22" style="enable-background:new 0 0 22 22;" width="22px" height="22px" xml:space="preserve">
<style type="text/css">
	path, g{
		fill:#ee3524;
	}
</style>
<path id="XMLID_62_" d="M11,1.5c5.3,0,9.5,4.2,9.5,9.5s-4.2,9.5-9.5,9.5S1.5,16.3,1.5,11S5.7,1.5,11,1.5z M11,0C4.9,0,0,4.9,0,11
	s4.9,11,11,11s11-4.9,11-11S17.1,0,11,0L11,0z"/>
<g id="XMLID_1129_">
	<path d="M9.4,17c0-0.5,0.1-0.8,0.4-1.1s0.7-0.4,1.1-0.4c0.5,0,0.8,0.1,1.1,0.4s0.4,0.7,0.4,1.1c0,0.5-0.1,0.8-0.4,1.1
		c-0.3,0.3-0.7,0.4-1.1,0.4c-0.5,0-0.9-0.1-1.2-0.4C9.6,17.8,9.4,17.4,9.4,17z M12.2,13.8H9.8L9.5,3.5h3.1L12.2,13.8z"/>
</g>
</svg>
