<?xml version="1.0" encoding="utf-8"?>
<!-- Generator: Adobe Illustrator 19.0.0, SVG Export Plug-In . SVG Version: 6.00 Build 0)  -->
<svg version="1.1" id="Layer_1" xmlns="http://www.w3.org/2000/svg" xmlns:xlink="http://www.w3.org/1999/xlink" x="0px" y="0px"
	 viewBox="4 -4 30 30" style="enable-background:new 4 -4 30 30;" width="30px" height="30px" xml:space="preserve">
<style type="text/css">
	.st0{fill:#F1C206;}
</style>
<g id="XMLID_2462_">
	<circle id="XMLID_41_" class="st0" cx="19" cy="11" r="15"/>
</g>
<g id="XMLID_5034_">
	<path id="XMLID_5037_" d="M21,2v1h-2V2h-1v2h1h2v1h-2v2h2v2h1v2h-2v-1V9h-1v1h-2h-2V9h2V7h1V4h-1V2h-7v7h3v1h-3v1v2v7h7h2h1h1v-1
		h-1v-1v-1h2v-1h-2h-1v-1h1v-2v-1h3v1h-2v1h5v1h-2v1h-1v1h-1v2h1v1h5v-1h-3v-3h1v1h2v-3v-1v-1h-1v1h-2v-1h-1v-1h-1V9h3v1h-1v2h2v-2
		h1V9V2H21z M12,7V4h3v3H12z M15,18h-3v-3h3V18z M19,18v1h-2v-3h1v2H19z M19,14h-2v-1h-2v-1h-2v1h-1v-2h3v1h2v-1h2v1h-1v1h1V14z
		 M23,7V4h3v3H23z"/>
	<rect id="XMLID_5042_" x="24" y="5" width="1" height="1"/>
	<rect id="XMLID_5043_" x="13" y="5" width="1" height="1"/>
	<rect id="XMLID_5044_" x="13" y="16" width="1" height="1"/>
	<rect id="XMLID_5045_" x="18" y="7" width="1" height="2"/>
</g>
</svg>
