<?xml version="1.0" encoding="utf-8"?>
<!-- Generator: Adobe Illustrator 19.0.0, SVG Export Plug-In . SVG Version: 6.00 Build 0)  -->
<svg version="1.1" id="Layer_1" xmlns="http://www.w3.org/2000/svg" xmlns:xlink="http://www.w3.org/1999/xlink" x="0px" y="0px"
	 viewBox="0 0 22 22" style="enable-background:new 0 0 22 22;" width="22px" height="22px" xml:space="preserve">
<path id="XMLID_1134_" d="M15.7,2C16.4,2,17,2.6,17,3.3v15.4c0,0.7-0.6,1.3-1.3,1.3H6.3C5.6,20,5,19.4,5,18.7V3.3C5,2.6,5.6,2,6.3,2
	H15.7 M15.7,1H6.3C5,1,4,2,4,3.3v15.4C4,20,5,21,6.3,21h9.4c1.3,0,2.3-1,2.3-2.3V3.3C18,2,17,1,15.7,1L15.7,1z"/>
<rect id="XMLID_1132_" x="10" y="17" width="2" height="2"/>
<rect id="XMLID_1129_" x="6" y="3" width="10" height="13"/>
</svg>
