<?xml version="1.0" encoding="utf-8"?>
<!-- Generator: Adobe Illustrator 19.0.0, SVG Export Plug-In . SVG Version: 6.00 Build 0)  -->
<svg version="1.1" id="Layer_1" xmlns="http://www.w3.org/2000/svg" xmlns:xlink="http://www.w3.org/1999/xlink" x="0px" y="0px"
	 viewBox="0 0 22 22" style="enable-background:new 0 0 22 22;" width="22px" height="22px" xml:space="preserve">
<style type="text/css">
	.st0h{opacity:0.15;}
	.st1{fill:#FFFFFF;}
</style>
<path id="XMLID_62_" class="st0h" d="M11,0C4.9,0,0,4.9,0,11s4.9,11,11,11s11-4.9,11-11S17.1,0,11,0L11,0z"/>
<g id="XMLID_4905_">
	<path class="st1" d="M11.8,8.5h1.1l-1.1,5.4c-0.1,0.3-0.1,0.6-0.1,0.9c0,0.3,0,0.5,0,0.7c0,0.3,0.1,0.5,0.2,0.6
		c0.1,0.1,0.3,0.2,0.6,0.2c0.1,0,0.3,0,0.5-0.1s0.5-0.1,0.9-0.2v0.9c-0.8,0.3-1.4,0.5-2,0.6c-0.6,0.1-1.1,0.2-1.5,0.2
		c-0.6,0-1.1-0.1-1.3-0.4c-0.3-0.3-0.4-0.6-0.4-1.2c0-0.1,0-0.3,0.1-0.6c0-0.3,0.1-0.6,0.2-0.9l0.9-4.3l-1.6-0.2V9.2L11.8,8.5z
		 M12.1,4.1c0.5,0,0.9,0.1,1.1,0.4s0.4,0.6,0.4,1c0,0.5-0.2,0.9-0.5,1.2c-0.4,0.3-0.8,0.5-1.4,0.5c-0.4,0-0.8-0.1-1.1-0.4
		c-0.3-0.2-0.4-0.6-0.4-1c0-0.5,0.2-0.9,0.5-1.3C11.2,4.2,11.6,4.1,12.1,4.1z"/>
</g>
</svg>
