<?xml version="1.0" encoding="utf-8"?>
<!-- Generator: Adobe Illustrator 19.0.0, SVG Export Plug-In . SVG Version: 6.00 Build 0)  -->
<svg version="1.1" id="Layer_1" xmlns="http://www.w3.org/2000/svg" xmlns:xlink="http://www.w3.org/1999/xlink" x="0px" y="0px"
	 viewBox="0 0 22 22" style="enable-background:new 0 0 22 22;" width="22px" height="22px" xml:space="preserve">
<g id="XMLID_1134_">
	<g id="XMLID_1891_">
		<path id="XMLID_1892_" d="M11,20.5c-5.4,0-9.5-4.1-9.5-9.5c0-5.8,3.7-9.5,9.5-9.5c5.6,0,9.5,3.9,9.5,9.5
			C20.5,16.2,16.2,20.5,11,20.5z M11,3.7c-4.5,0-7.3,2.8-7.3,7.3c0,4.2,3.1,7.3,7.3,7.3c4,0,7.3-3.3,7.3-7.3C18.3,7.4,16,3.7,11,3.7
			z"/>
	</g>
</g>
<g id="XMLID_1129_">
	
		<rect id="XMLID_1895_" x="9.5" y="2.3" transform="matrix(0.7071 0.7071 -0.7071 0.7071 10.7985 -4.3023)" width="2.2" height="17.2"/>
</g>
</svg>
