<?xml version="1.0" encoding="utf-8"?>
<!-- Generator: Adobe Illustrator 19.0.0, SVG Export Plug-In . SVG Version: 6.00 Build 0)  -->
<svg version="1.1" id="Layer_1" xmlns="http://www.w3.org/2000/svg" xmlns:xlink="http://www.w3.org/1999/xlink" x="0px" y="0px"
	 viewBox="-468 270 22 22" style="enable-background:new -468 270 22 22;" xml:space="preserve">
<g id="Layer_1_1_">
</g>
<g id="Artwork">
	<path d="M-458.9,278.2c0-1.1-0.9-2-2-2s-2,0.9-2,2s0.9,2,2,2S-458.9,279.3-458.9,278.2z M-457,270c-6.1,0-11,4.9-11,11
		s4.9,11,11,11s11-4.9,11-11S-450.9,270-457,270z M-457,291c-5.5,0-10-4.5-10-10s4.5-10,10-10s10,4.5,10,10S-451.5,291-457,291z
		 M-456.9,285.8c-1.9,0-4.8-1.4-4.8-1.5l-0.5,0.9c0.1,0.1,3.2,1.6,5.3,1.6s5.2-1.5,5.3-1.6l-0.5-0.9
		C-452.1,284.4-455,285.8-456.9,285.8z M-452.8,276.2c-1.1,0-2,0.9-2,2s0.9,2,2,2s2-0.9,2-2S-451.7,276.2-452.8,276.2z"/>
</g>
</svg>
