<?xml version="1.0" encoding="utf-8"?>
<!-- Generator: Adobe Illustrator 19.0.0, SVG Export Plug-In . SVG Version: 6.00 Build 0)  -->
<svg version="1.1" id="Layer_1" xmlns="http://www.w3.org/2000/svg" xmlns:xlink="http://www.w3.org/1999/xlink" x="0px" y="0px"
	 viewBox="-294.1 386 30 22" style="enable-background:new -294.1 386 30 22;" width="30px" height="22px" xml:space="preserve">
<style type="text/css">
	.st0{fill:#EE3524;}
</style>
<path id="XMLID_62_" class="st0" d="M-283.1,387.5c5.3,0,9.5,4.2,9.5,9.5s-4.2,9.5-9.5,9.5s-9.5-4.2-9.5-9.5
	S-288.4,387.5-283.1,387.5z M-283.1,386c-6.1,0-11,4.9-11,11s4.9,11,11,11s11-4.9,11-11S-277,386-283.1,386L-283.1,386z"/>
<polygon id="XMLID_1_" class="st0" points="-279.2,402.4 -277.7,400.9 -281.5,397 -277.7,393.1 -279.2,391.6 -283.1,395.4 
	-287,391.6 -288.5,393.1 -284.7,397 -288.5,400.9 -287,402.4 -283.1,398.6 "/>
</svg>
