<?xml version="1.0" encoding="utf-8"?>
<!-- Generator: Adobe Illustrator 19.0.0, SVG Export Plug-In . SVG Version: 6.00 Build 0)  -->
<svg version="1.1" id="Layer_1" xmlns="http://www.w3.org/2000/svg" xmlns:xlink="http://www.w3.org/1999/xlink" x="0px" y="0px"
	 viewBox="0 0 22 22" style="enable-background:new 0 0 22 22;" xml:space="preserve">
<style type="text/css">
	.st0{fill:#DADADA;}
	.st1{fill:#FFFFFF;}
</style>
<path id="XMLID_62_" class="st0" d="M11,0C4.9,0,0,4.9,0,11s4.9,11,11,11s11-4.9,11-11S17.1,0,11,0L11,0z"/>
<g id="XMLID_207_">
	<path id="XMLID_512_" class="st1" d="M13.1,11.7c-0.8,0.7-1,1.1-1,2.4H9.9c0-2.1,0.3-2.8,1.7-4.1c0.8-0.7,1-1.2,1-2
		c0-1.2-0.6-1.9-1.6-1.9c-1,0-1.7,1-1.7,2v0.3H6.9c0-3.1,1.6-4.7,4-4.7c2.5,0,4.2,1.7,4.2,4.2C15.1,9.4,14.6,10.3,13.1,11.7z
		 M9.8,18.3v-2.8h2.4v2.8H9.8z"/>
</g>
</svg>
