<?xml version="1.0" encoding="utf-8"?>
<!-- Generator: Adobe Illustrator 19.0.0, SVG Export Plug-In . SVG Version: 6.00 Build 0)  -->
<svg version="1.1" id="Layer_1" xmlns="http://www.w3.org/2000/svg" xmlns:xlink="http://www.w3.org/1999/xlink" x="0px" y="0px"
	 viewBox="-468 270 22 22" style="enable-background:new -468 270 22 22;" xml:space="preserve">
<style type="text/css">
	.st0{fill:#FFFFFF;}
</style>
<g id="Layer_1_1_">
</g>
<g id="Artwork">
	<g id="XMLID_3682_">
		<circle cx="-457" cy="281" r="11"/>
	</g>
	<g id="XMLID_2937_">
		<g id="XMLID_3158_">
			<path class="st0" d="M-456.3,278.9h1l-0.9,4.7c-0.1,0.3-0.1,0.5-0.1,0.7s0,0.4,0,0.6s0.1,0.4,0.2,0.5s0.3,0.2,0.5,0.2
				c0.1,0,0.3,0,0.5-0.1c0.2,0,0.5-0.1,0.8-0.2v0.8c-0.7,0.2-1.3,0.4-1.8,0.5s-0.9,0.2-1.3,0.2c-0.5,0-0.9-0.1-1.2-0.3
				c-0.3-0.2-0.4-0.6-0.4-1c0-0.1,0-0.3,0.1-0.5c0-0.2,0.1-0.5,0.2-0.8l0.8-3.8l-1.4-0.2v-0.7L-456.3,278.9z M-456,275.1
				c0.4,0,0.8,0.1,1,0.3c0.2,0.2,0.3,0.5,0.3,0.9s-0.2,0.8-0.5,1.1s-0.7,0.4-1.2,0.4c-0.4,0-0.7-0.1-0.9-0.3
				c-0.2-0.2-0.4-0.5-0.4-0.8c0-0.4,0.2-0.8,0.5-1.1C-456.9,275.2-456.5,275.1-456,275.1z"/>
		</g>
	</g>
</g>
</svg>
