<?xml version="1.0" encoding="utf-8"?>
<!-- Generator: Adobe Illustrator 19.1.0, SVG Export Plug-In . SVG Version: 6.00 Build 0)  -->
<svg version="1.1" id="Layer_1" xmlns="http://www.w3.org/2000/svg" xmlns:xlink="http://www.w3.org/1999/xlink" x="0px" y="0px"
	 viewBox="-468 270 22 22" enable-background="new -468 270 22 22" xml:space="preserve">
<g id="XMLID_4905_">
	<path fill="#FFFFFF" d="M-456.2,278.5h1.1l-1.1,5.4c-0.1,0.3-0.1,0.6-0.1,0.9c0,0.3,0,0.5,0,0.7c0,0.3,0.1,0.5,0.2,0.6
		s0.3,0.2,0.6,0.2c0.1,0,0.3,0,0.5-0.1c0.2-0.1,0.5-0.1,0.9-0.2v0.9c-0.8,0.3-1.4,0.5-2,0.6s-1.1,0.2-1.5,0.2
		c-0.6,0-1.1-0.1-1.3-0.4c-0.3-0.3-0.4-0.6-0.4-1.2c0-0.1,0-0.3,0.1-0.6c0-0.3,0.1-0.6,0.2-0.9l0.9-4.3l-1.6-0.2v-0.9L-456.2,278.5z
		 M-455.9,274.1c0.5,0,0.9,0.1,1.1,0.4c0.2,0.3,0.4,0.6,0.4,1c0,0.5-0.2,0.9-0.5,1.2c-0.4,0.3-0.8,0.5-1.4,0.5
		c-0.4,0-0.8-0.1-1.1-0.4c-0.3-0.2-0.4-0.6-0.4-1c0-0.5,0.2-0.9,0.5-1.3C-456.8,274.2-456.4,274.1-455.9,274.1z"/>
</g>
<g id="Artwork">
	<g id="XMLID_1105_">
		<path fill="#FFFFFF" d="M-457,271c5.5,0,10,4.5,10,10s-4.5,10-10,10s-10-4.5-10-10S-462.5,271-457,271 M-457,270
			c-6.1,0-11,4.9-11,11s4.9,11,11,11s11-4.9,11-11S-450.9,270-457,270L-457,270z"/>
	</g>
</g>
</svg>
