<?xml version="1.0" encoding="utf-8"?>
<!-- Generator: Adobe Illustrator 19.0.0, SVG Export Plug-In . SVG Version: 6.00 Build 0)  -->
<svg version="1.1" id="Layer_1" xmlns="http://www.w3.org/2000/svg" xmlns:xlink="http://www.w3.org/1999/xlink" x="0px" y="0px"
	 viewBox="0 0 22 22" style="enable-background:new 0 0 22 22;" width="22px" height="22px" xml:space="preserve">
<path id="XMLID_62_" d="M11,1.5c5.3,0,9.5,4.2,9.5,9.5s-4.2,9.5-9.5,9.5S1.5,16.3,1.5,11S5.7,1.5,11,1.5z M11,0C4.9,0,0,4.9,0,11
	s4.9,11,11,11s11-4.9,11-11S17.1,0,11,0L11,0z"/>
<polygon id="XMLID_1_" points="14.9,16.4 16.4,14.9 12.6,11 16.4,7.1 14.9,5.6 11,9.4 7.1,5.6 5.6,7.1 9.4,11 5.6,14.9 7.1,16.4 
	11,12.6 "/>
</svg>
