<?xml version="1.0" encoding="utf-8"?>
<!-- Generator: Adobe Illustrator 19.1.0, SVG Export Plug-In . SVG Version: 6.00 Build 0)  -->
<svg version="1.1" id="Layer_1" xmlns="http://www.w3.org/2000/svg" xmlns:xlink="http://www.w3.org/1999/xlink" x="0px" y="0px"
	 viewBox="0 0 125 125" enable-background="new 0 0 125 125" xml:space="preserve">
<g id="XMLID_3955_">
	<g id="XMLID_4005_">
		<path id="XMLID_4006_" fill="#666666" d="M121.8,58.9c1.7-3.7-0.1-9.4-1.1-12.9C111.6,14,78.3-4.6,46.3,4.5S-4.3,47,4.8,79
			c9.1,32,42.5,50.6,74.5,41.4c2.9-0.8,6.9-2.6,9-4.6C92.8,110.6,120.6,60.7,121.8,58.9z"/>
	</g>
	<g id="XMLID_3985_">
		<path id="XMLID_4000_" fill="#FFFFFF" d="M24.8,55.9l-0.4-1.6c-0.1-0.6-0.3-1-0.6-1.3c-0.2-0.3-0.7-0.3-1.4-0.2
			c-0.5,0.1-0.8,0.4-0.9,0.7c-0.1,0.4-0.1,0.8,0.1,1.2l0.2,0.8c0.1,0.4,0.3,0.7,0.5,1c0.2,0.2,0.5,0.4,1,0.5l5.3,1.9
			c0.7,0.2,1.2,0.4,1.6,0.7c0.4,0.2,0.8,0.5,1.1,0.8c0.3,0.3,0.6,0.7,0.8,1.2c0.2,0.5,0.4,1.1,0.6,1.9c0.2,0.7,0.3,1.4,0.4,2.2
			c0.1,0.8,0,1.5-0.3,2.2c-0.3,0.7-0.9,1.4-1.7,2c-0.8,0.6-2,1.2-3.6,1.6c-1.6,0.4-3,0.6-4.2,0.4c-1.2-0.1-2-0.5-2.7-1.2
			c-0.4-0.5-0.8-1-1-1.7c-0.2-0.7-0.4-1.2-0.5-1.7l-0.3-1.3l5.2-1.4l0.5,1.7c0,0.1,0.1,0.3,0.2,0.5c0.1,0.2,0.2,0.4,0.3,0.5
			c0.1,0.2,0.3,0.3,0.6,0.4c0.2,0.1,0.6,0.1,0.9,0c0.4-0.1,0.7-0.2,0.8-0.4c0.2-0.2,0.3-0.3,0.4-0.5c0.1-0.2,0.1-0.4,0.1-0.6
			c0-0.2,0-0.4-0.1-0.5c-0.1-0.4-0.2-0.8-0.3-1c-0.1-0.3-0.2-0.5-0.4-0.7c-0.2-0.2-0.4-0.3-0.8-0.5c-0.3-0.1-0.8-0.3-1.3-0.5
			l-3.8-1.4c-0.5-0.2-1-0.4-1.4-0.5c-0.4-0.1-0.8-0.4-1.2-0.7c-0.4-0.3-0.7-0.7-1-1.2c-0.3-0.5-0.6-1.2-0.8-2.1
			c-0.3-1.2-0.5-2.2-0.4-3c0-0.9,0.2-1.6,0.6-2.2c0.4-0.6,1-1.2,1.8-1.6c0.8-0.5,1.9-0.9,3.1-1.2c1.5-0.4,2.6-0.5,3.5-0.5
			c0.9,0.1,1.6,0.3,2.2,0.7c0.6,0.4,1,1,1.3,1.7c0.3,0.7,0.5,1.5,0.8,2.4l0.3,1.1L24.8,55.9z"/>
		<path id="XMLID_3996_" fill="#FFFFFF" d="M39.5,48.9l4.8,18L39,68.3l-4.8-18l-4.3,1.2l-1-3.8l14-3.7l1,3.8L39.5,48.9z"/>
		<path id="XMLID_3994_" fill="#FFFFFF" d="M49.9,65.4l-5.8-21.8l5.3-1.4L55.2,64L49.9,65.4z"/>
		<path id="XMLID_3992_" fill="#FFFFFF" d="M69.1,53.4c0.3,1.2,0.5,2.3,0.5,3.2c0,0.9-0.2,1.7-0.6,2.4c-0.4,0.7-1.1,1.3-1.9,1.7
			c-0.9,0.5-2,0.9-3.4,1.3c-1.3,0.4-2.5,0.5-3.4,0.5c-0.9,0-1.7-0.2-2.4-0.5c-0.6-0.3-1.1-0.8-1.5-1.4c-0.4-0.6-0.7-1.3-0.9-2.1
			L52.4,47c-0.2-0.8-0.3-1.6-0.2-2.4c0.1-0.8,0.3-1.5,0.7-2.1c0.4-0.6,1-1.2,1.8-1.7c0.8-0.5,1.8-0.9,3.1-1.3
			c1.3-0.4,2.5-0.5,3.4-0.5c1,0,1.8,0.2,2.5,0.6c0.7,0.4,1.2,0.9,1.6,1.5c0.4,0.7,0.8,1.4,1,2.3l0.7,2.6l-5.2,1.4L61,44.6
			c-0.2-0.7-0.4-1.1-0.8-1.3c-0.3-0.2-0.9-0.2-1.5,0c-0.7,0.2-1.1,0.5-1.2,0.9c-0.1,0.4-0.1,0.9,0.1,1.5l2.9,10.8
			c0.2,0.7,0.4,1.2,0.7,1.5c0.3,0.3,0.8,0.4,1.6,0.2c0.7-0.2,1.1-0.5,1.3-0.9c0.1-0.4,0.1-1-0.1-1.7l-0.7-2.7l5.3-1.4L69.1,53.4z"/>
		<path id="XMLID_3990_" fill="#FFFFFF" d="M82.2,56.7l-7.3-9.5l2.8,10.6l-5.2,1.4l-5.8-21.8l5.2-1.4l2.6,9.9l1.4-10.9l5.4-1.4
			l-1.6,11.5l8,10.1L82.2,56.7z"/>
		<path id="XMLID_3986_" fill="#FFFFFF" d="M96.3,44.7l2,7.6l-5.1,1.4l-2-7.6l-9-12.7l5.2-1.4l5.2,8.9l0.1-10.3l5.3-1.4L96.3,44.7z"
			/>
	</g>
	
		<linearGradient id="XMLID_3_" gradientUnits="userSpaceOnUse" x1="0.3177" y1="760.5184" x2="4.7798" y2="765.1257" gradientTransform="matrix(0.9617 -0.2742 0.2742 0.9617 -109.0057 -647.5319)">
		<stop  offset="0.3194" style="stop-color:#FFFFFF"/>
		<stop  offset="0.4335" style="stop-color:#FBFBFB"/>
		<stop  offset="0.5556" style="stop-color:#EEEEEE"/>
		<stop  offset="0.6813" style="stop-color:#D8D8D8"/>
		<stop  offset="0.8094" style="stop-color:#BBBBBB"/>
		<stop  offset="0.9383" style="stop-color:#959595"/>
		<stop  offset="1" style="stop-color:#808080"/>
	</linearGradient>
	<path id="XMLID_3984_" fill="url(#XMLID_3_)" d="M122.4,56.5c-0.2,0.9-0.1,1.2-0.7,2.3c-1.1,1.9-3.3,3.4-4.6,4.3
		c-14.9,9.7-25.7,26.9-26.5,45.1l0,0c0,0,0,1.4-0.1,1.9c-0.1,1.7-0.6,4.1-2.2,5.7c-0.4,0.3-0.8,0.7-1.2,1c1.3-0.8,2.7-2.1,3.5-3.2
		c0.9-1.3,30.4-51.9,30.8-52.9c1-2.1,1-4.5,1-4.5S122.4,56.5,122.4,56.5z"/>
	<g id="XMLID_3956_">
		<path id="XMLID_3980_" fill="#FFDB00" d="M35.3,77.1l1,3.8l3.9-1.1l0.8,3L37.1,84l2,7.3L35,92.4l-4.6-17.1l8.4-2.3l0.8,2.9
			L35.3,77.1z"/>
		<path id="XMLID_3975_" fill="#FFDB00" d="M52,87.8c-0.3-0.3-0.6-0.7-0.8-1c-0.2-0.4-0.3-0.8-0.4-1.4L50,82.6
			c-0.1-0.4-0.2-0.8-0.3-1c-0.1-0.2-0.2-0.4-0.4-0.5c-0.2-0.1-0.4-0.2-0.7-0.1c-0.3,0-0.6,0.1-1.1,0.2l-0.7,0.2l2,7.3l-3.9,1.1
			l-4.6-17.1l5.8-1.6c0.6-0.2,1.1-0.3,1.7-0.4c0.6-0.1,1.2,0,1.7,0.3c0.3,0.1,0.6,0.3,0.8,0.6c0.2,0.2,0.4,0.5,0.6,0.8
			c0.2,0.3,0.3,0.6,0.4,0.9c0.1,0.3,0.2,0.6,0.3,1c0.2,0.6,0.3,1.1,0.3,1.5c0,0.4,0,0.8-0.1,1.1c-0.1,0.3-0.3,0.6-0.5,0.9
			c-0.2,0.3-0.5,0.6-0.8,0.9c0.1,0,0.1,0,0.3,0c0.1,0,0.3,0,0.5,0c0.2,0,0.4,0.1,0.6,0.1c0.2,0.1,0.4,0.2,0.6,0.3
			c0.3,0.2,0.5,0.5,0.7,0.9c0.1,0.4,0.3,0.9,0.5,1.6l1,3.6c0.1,0.5,0.3,0.9,0.5,1.1s0.4,0.4,0.6,0.6L52,87.8z M46,78.4l1.3-0.3
			c0.3-0.1,0.6-0.2,0.8-0.3c0.2-0.1,0.3-0.3,0.3-0.5c0-0.2,0-0.4,0-0.7c-0.1-0.3-0.1-0.6-0.2-1c-0.1-0.4-0.2-0.7-0.3-0.9
			c-0.1-0.2-0.2-0.4-0.4-0.5c-0.1-0.1-0.3-0.1-0.5-0.1c-0.2,0-0.4,0.1-0.7,0.1L45,74.5L46,78.4z"/>
		<path id="XMLID_3973_" fill="#FFDB00" d="M56.9,86.4l-4.6-17.1l8.8-2.4l0.8,3l-4.7,1.3l1.1,3.9l4.4-1.2l0.8,3l-4.4,1.2l1.1,4.1
			l4.7-1.3l0.8,3L56.9,86.4z"/>
		<path id="XMLID_3971_" fill="#FFDB00" d="M66.9,83.7l-4.6-17.1l8.8-2.4l0.8,3l-4.7,1.3l1.1,3.9l4.4-1.2l0.8,3l-4.4,1.2l1.1,4.1
			l4.7-1.3l0.8,3L66.9,83.7z"/>
		<path id="XMLID_3964_" fill="#FFDB00" d="M78.3,62.3c1.4-0.4,2.5-0.4,3.4,0c0.9,0.4,1.5,1.1,1.8,2.2l0.3,1.2
			c0.2,0.6,0.2,1.1,0.3,1.5c0,0.4,0,0.8-0.1,1.1c-0.1,0.3-0.3,0.6-0.5,0.8c-0.2,0.2-0.5,0.5-0.9,0.7c0.6,0,1,0,1.4,0.2
			c0.4,0.1,0.7,0.3,1,0.5c0.3,0.2,0.5,0.5,0.7,0.9c0.2,0.4,0.3,0.8,0.5,1.3l0.2,0.8c0.3,1,0.4,1.9,0.3,2.6c-0.1,0.7-0.2,1.2-0.5,1.7
			c-0.3,0.4-0.7,0.8-1.2,1c-0.5,0.2-1,0.4-1.6,0.6L76.8,81l-4.6-17.1L78.3,62.3z M77.9,69.6l1.7-0.5c0.5-0.1,0.8-0.4,0.8-0.7
			c0-0.3,0-0.8-0.2-1.5c-0.2-0.7-0.4-1.1-0.6-1.3c-0.2-0.2-0.6-0.3-1.1-0.1l-1.6,0.4L77.9,69.6z M79.9,76.9l1.6-0.4
			c0.3-0.1,0.5-0.2,0.7-0.3c0.2-0.1,0.3-0.3,0.3-0.5c0-0.2,0-0.4,0-0.7c0-0.3-0.1-0.6-0.2-1c-0.1-0.4-0.2-0.7-0.3-1
			c-0.1-0.3-0.2-0.5-0.3-0.7c-0.1-0.2-0.3-0.3-0.5-0.3c-0.2,0-0.5,0-0.8,0.1l-1.6,0.4L79.9,76.9z"/>
		<path id="XMLID_3959_" fill="#FFDB00" d="M88.3,77.9l-4.6-17.1l4.1-1.1l4.6,17.1L88.3,77.9z"/>
		<path id="XMLID_3957_" fill="#FFDB00" d="M94.3,76.2l-4.6-17.1l8.8-2.4l0.8,3l-4.7,1.3l1.1,3.9l4.4-1.2l0.8,3L96.5,68l1.1,4.1
			l4.7-1.3l0.8,3L94.3,76.2z"/>
	</g>
</g>
</svg>
