<?xml version="1.0" encoding="utf-8"?>
<!-- Generator: Adobe Illustrator 19.1.0, SVG Export Plug-In . SVG Version: 6.00 Build 0)  -->
<svg version="1.1" id="Layer_1" xmlns="http://www.w3.org/2000/svg" xmlns:xlink="http://www.w3.org/1999/xlink" x="0px" y="0px"
	 viewBox="0 0 115 115" style="enable-background:new 0 0 115 115;" xml:space="preserve">
<style type="text/css">
	.st0{fill:#E42613;}
	.st1{fill:#FFFFFF;}
	.st2{fill:url(#XMLID_2_);}
	.st3{fill:#FFDB00;}
</style>
<g id="XMLID_3629_">
	<g id="XMLID_3695_">
		<path id="XMLID_3698_" class="st0" d="M114.2,54c1.7-3.5-0.1-9-1-12.3C104.4,11.2,72.5-6.5,41.8,2.2s-48.4,40.5-39.7,71
			c8.7,30.5,40.7,48.2,71.4,39.5c2.8-0.8,6.6-2.5,8.7-4.4C86.4,103.4,113.1,55.8,114.2,54z"/>
	</g>
	<g id="XMLID_3662_">
		<path id="XMLID_3692_" class="st1" d="M21.3,51.2l-0.4-1.5c-0.1-0.5-0.3-0.9-0.6-1.2c-0.2-0.3-0.7-0.3-1.3-0.2
			c-0.5,0.1-0.8,0.4-0.9,0.7c-0.1,0.3-0.1,0.7,0.1,1.2l0.2,0.8c0.1,0.4,0.3,0.7,0.5,0.9c0.2,0.2,0.5,0.4,0.9,0.5l5.1,1.8
			c0.6,0.2,1.1,0.4,1.6,0.6c0.4,0.2,0.8,0.5,1.1,0.8c0.3,0.3,0.6,0.7,0.8,1.2c0.2,0.5,0.4,1.1,0.6,1.8c0.2,0.6,0.3,1.3,0.4,2.1
			c0.1,0.7,0,1.4-0.3,2.1c-0.3,0.7-0.8,1.3-1.6,1.9c-0.8,0.6-2,1.1-3.5,1.5c-1.6,0.4-2.9,0.6-4,0.4c-1.1-0.1-2-0.5-2.6-1.2
			c-0.4-0.4-0.7-1-1-1.6c-0.2-0.6-0.4-1.2-0.5-1.6l-0.3-1.2l5-1.3l0.4,1.6c0,0.1,0.1,0.3,0.2,0.4c0.1,0.2,0.2,0.3,0.3,0.5
			c0.1,0.2,0.3,0.3,0.6,0.3c0.2,0.1,0.5,0.1,0.9,0c0.4-0.1,0.6-0.2,0.8-0.4c0.2-0.1,0.3-0.3,0.4-0.5c0.1-0.2,0.1-0.3,0.1-0.5
			c0-0.2,0-0.4-0.1-0.5c-0.1-0.4-0.2-0.7-0.3-1c-0.1-0.2-0.2-0.5-0.4-0.6c-0.2-0.2-0.4-0.3-0.7-0.5c-0.3-0.1-0.7-0.3-1.3-0.5
			l-3.6-1.4c-0.5-0.2-0.9-0.4-1.3-0.5c-0.4-0.1-0.8-0.4-1.2-0.6c-0.4-0.3-0.7-0.7-1-1.2c-0.3-0.5-0.6-1.2-0.8-2
			c-0.3-1.1-0.4-2.1-0.4-2.9c0-0.8,0.2-1.5,0.6-2.1c0.4-0.6,0.9-1.1,1.7-1.6c0.8-0.4,1.8-0.8,3-1.2c1.4-0.4,2.5-0.5,3.4-0.4
			c0.9,0.1,1.5,0.3,2.1,0.7c0.5,0.4,0.9,0.9,1.2,1.6c0.3,0.7,0.5,1.4,0.7,2.2L26,50L21.3,51.2z"/>
		<path id="XMLID_3687_" class="st1" d="M35.3,44.5l4.6,17.1L34.8,63l-4.6-17.1L26,47l-1-3.6l13.4-3.6l1,3.6L35.3,44.5z"/>
		<path id="XMLID_3685_" class="st1" d="M45.3,60.2l-5.6-20.8l5.1-1.3l5.6,20.8L45.3,60.2z"/>
		<path id="XMLID_3680_" class="st1" d="M63.7,48.8c0.3,1.2,0.5,2.2,0.5,3c0,0.9-0.2,1.6-0.6,2.3c-0.4,0.6-1,1.2-1.8,1.7
			c-0.8,0.5-1.9,0.9-3.3,1.2c-1.3,0.3-2.4,0.5-3.3,0.5c-0.9,0-1.6-0.2-2.3-0.5c-0.6-0.3-1.1-0.8-1.5-1.3c-0.4-0.6-0.6-1.3-0.9-2
			l-2.9-10.9c-0.2-0.8-0.3-1.6-0.2-2.3c0.1-0.7,0.3-1.4,0.7-2c0.4-0.6,1-1.2,1.8-1.6c0.8-0.5,1.8-0.9,3-1.2c1.3-0.3,2.4-0.5,3.3-0.5
			c0.9,0,1.7,0.2,2.3,0.6c0.6,0.3,1.2,0.8,1.6,1.5c0.4,0.6,0.7,1.4,1,2.2l0.7,2.5l-5,1.3l-0.7-2.7c-0.2-0.6-0.4-1-0.8-1.2
			c-0.3-0.2-0.8-0.2-1.4,0c-0.6,0.2-1,0.5-1.1,0.9c-0.1,0.4-0.1,0.9,0.1,1.4l2.8,10.3c0.2,0.7,0.4,1.2,0.7,1.5
			c0.3,0.3,0.8,0.4,1.6,0.2c0.7-0.2,1.1-0.5,1.2-0.9c0.1-0.4,0.1-0.9-0.1-1.6l-0.7-2.6l5.1-1.4L63.7,48.8z"/>
		<path id="XMLID_3669_" class="st1" d="M76.2,52l-7-9L72,53.1l-5,1.3l-5.6-20.8l5-1.3l2.5,9.4l1.3-10.4l5.1-1.4l-1.6,10.9l7.7,9.7
			L76.2,52z"/>
		<path id="XMLID_3664_" class="st1" d="M89.7,40.6l2,7.3l-4.9,1.3l-2-7.3l-8.6-12.1l5-1.3l5,8.5l0.1-9.8l5.1-1.3L89.7,40.6z"/>
	</g>
	
		<linearGradient id="XMLID_2_" gradientUnits="userSpaceOnUse" x1="-10.7846" y1="787.14" x2="-6.487" y2="791.5775" gradientTransform="matrix(0.9617 -0.2742 0.2742 0.9617 -112.309 -682.1607)">
		<stop  offset="0.3194" style="stop-color:#FFFFFF"/>
		<stop  offset="0.4335" style="stop-color:#FBFBFB"/>
		<stop  offset="0.5556" style="stop-color:#EEEEEE"/>
		<stop  offset="0.6813" style="stop-color:#D8D8D8"/>
		<stop  offset="0.8094" style="stop-color:#BBBBBB"/>
		<stop  offset="0.9383" style="stop-color:#959595"/>
		<stop  offset="1" style="stop-color:#808080"/>
	</linearGradient>
	<path id="XMLID_3660_" class="st2" d="M114.8,51.8c-0.2,0.8-0.1,1.2-0.7,2.2c-1,1.8-3.1,3.3-4.4,4.1c-14.2,9.2-24.6,25.7-25.4,43
		l0,0c0,0,0,1.3-0.1,1.8c-0.1,1.6-0.6,3.9-2.1,5.4c-0.3,0.3-0.7,0.6-1.2,0.9c1.3-0.8,2.6-2,3.3-3.1c0.8-1.2,29.1-49.5,29.6-50.5
		c0.9-2,1-4.3,1-4.3S114.8,51.8,114.8,51.8z"/>
	<g id="XMLID_3630_">
		<path id="XMLID_3655_" class="st3" d="M40.3,66c1.7-0.5,3.2-0.4,4.3,0.1c1.1,0.5,1.9,1.7,2.4,3.6l3,10.8c0.3,1.1,0.4,1.9,0.3,2.7
			c-0.1,0.7-0.3,1.3-0.7,1.8c-0.4,0.5-0.9,0.9-1.6,1.2c-0.7,0.3-1.4,0.6-2.3,0.8l-7.9,2.1l-5.7-21L40.3,66z M41.8,84.2l1.6-0.4
			c0.7-0.2,1.2-0.4,1.4-0.8c0.2-0.3,0.2-0.8,0-1.5l-2.7-10c-0.2-0.7-0.5-1.1-0.8-1.4c-0.4-0.2-0.9-0.2-1.6,0l-1.6,0.4L41.8,84.2z"/>
		<path id="XMLID_3646_" class="st3" d="M53.3,85l-5.7-21l10.9-3l1,3.7l-5.8,1.6l1.3,4.8l5.5-1.5l1,3.7L56,74.9l1.4,5.1l5.8-1.6
			l1,3.7L53.3,85z"/>
		<path id="XMLID_3638_" class="st3" d="M75.8,78.9l-2-4.6l-3.9,1.1l0.6,5l-5,1.4L64,59.6l6.8-1.8l10,19.8L75.8,78.9z M68.3,62
			l1.1,9.7l2.8-0.8L68.3,62z"/>
		<path id="XMLID_3632_" class="st3" d="M82.2,77.2l-5.7-21l5.1-1.4l4.7,17.3l5.3-1.4l1,3.7L82.2,77.2z"/>
	</g>
</g>
</svg>
