<?xml version="1.0" encoding="utf-8"?>
<!-- Generator: Adobe Illustrator 19.1.0, SVG Export Plug-In . SVG Version: 6.00 Build 0)  -->
<svg version="1.1" id="Layer_1" xmlns="http://www.w3.org/2000/svg" xmlns:xlink="http://www.w3.org/1999/xlink" x="0px" y="0px"
	 viewBox="-22.1 31.9 89.7 52.1" style="enable-background:new -22.1 31.9 89.7 52.1;" xml:space="preserve">
<style type="text/css">
	.st0{fill:#FFD600;}
</style>
<path class="st0" d="M61.5,41.8c-0.1,0.1-0.1,0.1-0.2,0.2c-0.5-2.3-3.4-4-5.6-2.6s-4,3.1-5.7,5c0-2.7-2.9-5.4-5.6-3.5
	c-0.1-0.1-0.2,0-0.3,0c0.1-0.1,0.1-0.3,0.2-0.5c0.8-3.1-2.7-5.9-5.5-4.2c-1.6,1-3.3,1.9-4.9,2.9c1.1-2.4,1-4.5-1.3-6.1
	c-5.9-3.9-14.5,3.2-18.7,6.7c-0.2,0.2-0.4,0.3-0.6,0.5c0.4-0.5,0.8-1,1.3-1.5c2.5-3-0.8-8.5-4.5-5.9c-6.8,4.8-13.5,9.6-20.3,14.4
	c-3.2,2.3-1.3,7.1,1.7,7.2C-8.8,54.7-9,55-9.3,55.3c-2.2,2.6-0.2,7.6,3.6,6.3c1.3-0.5,2.5-1,3.7-1.5c-0.6,0.6-1.2,1.3-1.7,2.1
	c-1.6,2.2-0.1,4.4,2,5.2c-2,1.8-3.8,3.8-4.9,6c-1.6,3,1,6.2,4.2,5.5c4.1-0.9,7.3-3.1,10.5-5.7c0.2-0.2,0.4-0.3,0.6-0.5
	c-1.3,2.1-2.4,4.3-3.2,6.6c-0.9,2.6,2,5.6,4.6,4.6c6.1-2.2,10.7-6.2,15.2-10.3c-0.6,0.9-1.2,1.8-1.8,2.8c-1.6,2.9,1.1,6.3,4.2,5.5
	c5.2-1.3,9.1-4.7,12.8-8.4c0,0,0,0.1-0.1,0.1c-0.9,1.7-3.1,4.3-3,6.3c0.1,2.5,3.2,5.1,5.6,3.2c7.3-5.6,13.7-12.9,20.4-19.2
	c2.3-2.2,0.7-5.3-1.6-6.2c2.8-3.8,5.1-7.9,5.7-12.2C68.3,41.7,64.5,39.2,61.5,41.8z"/>
</svg>
