<?xml version="1.0" encoding="utf-8"?>
<!-- Generator: Adobe Illustrator 19.1.0, SVG Export Plug-In . SVG Version: 6.00 Build 0)  -->
<svg version="1.1" id="Layer_1" xmlns="http://www.w3.org/2000/svg" xmlns:xlink="http://www.w3.org/1999/xlink" x="0px" y="0px"
	 viewBox="0 0 165 271" enable-background="new 0 0 165 271" xml:space="preserve">
<g id="XMLID_59_">
	<image overflow="visible" opacity="0.15" width="165" height="271" xlink:href="869339D94751C113.png" >
	</image>
	<g>
		<polygon fill="#FFFFFF" points="3.2,267 10.1,260.2 16.6,266.7 23.2,260.2 29.7,266.7 36.3,260.2 42.8,266.7 49.4,260.2 
			55.9,266.7 62.5,260.2 69,266.7 75.6,260.2 82.1,266.7 88.7,260.2 95.2,266.7 101.8,260.2 108.3,266.7 114.9,260.2 121.4,266.7 
			128,260.2 134.5,266.7 141.1,260.2 147.6,266.7 154.2,260.2 161.1,267 161,267 161,2 161.1,2 154.3,8.8 147.7,2.3 141.2,8.8 
			134.6,2.3 128.1,8.8 121.5,2.3 115,8.8 108.4,2.3 101.9,8.8 95.3,2.3 88.8,8.8 82.2,2.3 75.7,8.8 69.1,2.3 62.6,8.8 56,2.3 
			49.5,8.8 42.9,2.3 36.4,8.8 29.8,2.3 23.3,8.8 16.7,2.3 10.2,8.8 3.3,2 		"/>
	</g>
</g>
</svg>
