<?xml version="1.0" encoding="utf-8"?>
<!-- Generator: Adobe Illustrator 19.1.0, SVG Export Plug-In . SVG Version: 6.00 Build 0)  -->
<svg version="1.1" id="Layer_1" xmlns="http://www.w3.org/2000/svg" xmlns:xlink="http://www.w3.org/1999/xlink" x="0px" y="0px"
	 viewBox="0 0 232 345" enable-background="new 0 0 232 345" xml:space="preserve">
<g id="XMLID_46_">
	<image overflow="visible" opacity="0.15" width="232" height="345" xlink:href="E473F5B0827EA003.png" >
	</image>
	<g>
		<polygon fill="#FFFFFF" points="228.5,2.9 221.8,9.6 215.5,3.4 209.3,9.6 203.1,3.4 196.9,9.6 190.7,3.4 184.4,9.6 178.2,3.4 
			172,9.6 165.8,3.4 159.5,9.6 153.3,3.4 147.1,9.6 140.9,3.4 134.7,9.6 128.4,3.4 122.2,9.6 116,3.4 109.8,9.6 103.6,3.4 97.3,9.6 
			91.1,3.4 84.9,9.6 78.7,3.4 72.4,9.6 66.2,3.4 60,9.6 53.8,3.4 47.6,9.6 41.3,3.4 35.1,9.6 28.9,3.4 22.7,9.6 16.4,3.4 10.2,9.6 
			3.5,2.9 3.6,340.9 10.3,334.2 16.5,340.4 22.7,334.2 28.9,340.4 35.2,334.2 41.4,340.4 47.6,334.2 53.8,340.4 60,334.2 
			66.3,340.4 72.5,334.2 78.7,340.4 84.9,334.2 91.2,340.4 97.4,334.2 103.6,340.4 109.8,334.2 116,340.4 122.3,334.2 128.5,340.4 
			134.7,334.2 140.9,340.4 147.2,334.2 153.4,340.4 159.6,334.2 165.8,340.4 172,334.2 178.3,340.4 184.5,334.2 190.7,340.4 
			196.9,334.2 203.2,340.4 209.4,334.2 215.6,340.4 221.8,334.2 228.5,340.9 		"/>
	</g>
</g>
</svg>
